<?xml version="1.0" encoding="UTF-8" standalone="no"?>
<!DOCTYPE svg PUBLIC "-//W3C//DTD SVG 1.1//EN"
 "http://www.w3.org/Graphics/SVG/1.1/DTD/svg11.dtd">
<!-- Generated by graphviz version 2.40.1 (20161225.0304)
 -->
<!-- Title: UmlClassDiagram Pages: 1 -->
<svg width="1672pt" height="1073pt"
 viewBox="0.00 0.00 1672.00 1072.80" xmlns="http://www.w3.org/2000/svg" xmlns:xlink="http://www.w3.org/1999/xlink">
<g id="graph0" class="graph" transform="scale(1 1) rotate(0) translate(4 1068.8)">
<title>UmlClassDiagram</title>
<polygon fill="#ffffff" stroke="transparent" points="-4,4 -4,-1068.8 1667.9963,-1068.8 1667.9963,4 -4,4"/>
<!-- 0 -->
<g id="node1" class="node">
<title>0</title>
<polygon fill="#f2f2f2" stroke="#000000" points="989.6241,-880.7 989.6241,-1005.5 1207.7687,-1005.5 1207.7687,-880.7 989.6241,-880.7"/>
<text text-anchor="middle" x="1098.6964" y="-988.9" font-family="Times,serif" font-size="14.00" fill="#000000">&lt;&lt;Abstract&gt;&gt;</text>
<text text-anchor="middle" x="1098.6964" y="-972.1" font-family="Times,serif" font-size="14.00" fill="#000000">Context</text>
<polyline fill="none" stroke="#000000" points="989.6241,-963.9 1207.7687,-963.9 "/>
<text text-anchor="middle" x="1098.6964" y="-947.3" font-family="Times,serif" font-size="14.00" fill="#000000"> </text>
<polyline fill="none" stroke="#000000" points="989.6241,-939.1 1207.7687,-939.1 "/>
<text text-anchor="start" x="997.6241" y="-922.5" font-family="Times,serif" font-size="14.00" fill="#000000">Internal:</text>
<text text-anchor="start" x="997.6241" y="-905.7" font-family="Times,serif" font-size="14.00" fill="#000000"> &#160;&#160;&#160;_msgSender(): (payable: address)</text>
<text text-anchor="start" x="997.6241" y="-888.9" font-family="Times,serif" font-size="14.00" fill="#000000"> &#160;&#160;&#160;_msgData(): bytes</text>
</g>
<!-- 1 -->
<g id="node2" class="node">
<title>1</title>
<polygon fill="#f2f2f2" stroke="#000000" points="1225.3965,-821.9 1225.3965,-1064.3 1663.9963,-1064.3 1663.9963,-821.9 1225.3965,-821.9"/>
<text text-anchor="middle" x="1444.6964" y="-1047.7" font-family="Times,serif" font-size="14.00" fill="#000000">&lt;&lt;Interface&gt;&gt;</text>
<text text-anchor="middle" x="1444.6964" y="-1030.9" font-family="Times,serif" font-size="14.00" fill="#000000">IERC20</text>
<polyline fill="none" stroke="#000000" points="1225.3965,-1022.7 1663.9963,-1022.7 "/>
<text text-anchor="middle" x="1444.6964" y="-1006.1" font-family="Times,serif" font-size="14.00" fill="#000000"> </text>
<polyline fill="none" stroke="#000000" points="1225.3965,-997.9 1663.9963,-997.9 "/>
<text text-anchor="start" x="1233.3965" y="-981.3" font-family="Times,serif" font-size="14.00" fill="#000000">External:</text>
<text text-anchor="start" x="1233.3965" y="-964.5" font-family="Times,serif" font-size="14.00" fill="#000000"> &#160;&#160;&#160;&#160;totalSupply(): uint256</text>
<text text-anchor="start" x="1233.3965" y="-947.7" font-family="Times,serif" font-size="14.00" fill="#000000"> &#160;&#160;&#160;&#160;balanceOf(account: address): uint256</text>
<text text-anchor="start" x="1233.3965" y="-930.9" font-family="Times,serif" font-size="14.00" fill="#000000"> &#160;&#160;&#160;&#160;transfer(recipient: address, amount: uint256): bool</text>
<text text-anchor="start" x="1233.3965" y="-914.1" font-family="Times,serif" font-size="14.00" fill="#000000"> &#160;&#160;&#160;&#160;allowance(owner: address, spender: address): uint256</text>
<text text-anchor="start" x="1233.3965" y="-897.3" font-family="Times,serif" font-size="14.00" fill="#000000"> &#160;&#160;&#160;&#160;approve(spender: address, amount: uint256): bool</text>
<text text-anchor="start" x="1233.3965" y="-880.5" font-family="Times,serif" font-size="14.00" fill="#000000"> &#160;&#160;&#160;&#160;transferFrom(sender: address, recipient: address, amount: uint256): bool</text>
<text text-anchor="start" x="1233.3965" y="-863.7" font-family="Times,serif" font-size="14.00" fill="#000000">Public:</text>
<text text-anchor="start" x="1233.3965" y="-846.9" font-family="Times,serif" font-size="14.00" fill="#000000"> &#160;&#160;&#160;&lt;&lt;event&gt;&gt; Transfer(from: address, to: address, value: uint256)</text>
<text text-anchor="start" x="1233.3965" y="-830.1" font-family="Times,serif" font-size="14.00" fill="#000000"> &#160;&#160;&#160;&lt;&lt;event&gt;&gt; Approval(owner: address, spender: address, value: uint256)</text>
</g>
<!-- 2 -->
<g id="node3" class="node">
<title>2</title>
<polygon fill="#f2f2f2" stroke="#000000" points="0,-830.3 0,-1055.9 357.3928,-1055.9 357.3928,-830.3 0,-830.3"/>
<text text-anchor="middle" x="178.6964" y="-1039.3" font-family="Times,serif" font-size="14.00" fill="#000000">&lt;&lt;Library&gt;&gt;</text>
<text text-anchor="middle" x="178.6964" y="-1022.5" font-family="Times,serif" font-size="14.00" fill="#000000">SafeMath</text>
<polyline fill="none" stroke="#000000" points="0,-1014.3 357.3928,-1014.3 "/>
<text text-anchor="middle" x="178.6964" y="-997.7" font-family="Times,serif" font-size="14.00" fill="#000000"> </text>
<polyline fill="none" stroke="#000000" points="0,-989.5 357.3928,-989.5 "/>
<text text-anchor="start" x="8" y="-972.9" font-family="Times,serif" font-size="14.00" fill="#000000">Internal:</text>
<text text-anchor="start" x="8" y="-956.1" font-family="Times,serif" font-size="14.00" fill="#000000"> &#160;&#160;&#160;add(a: uint256, b: uint256): uint256</text>
<text text-anchor="start" x="8" y="-939.3" font-family="Times,serif" font-size="14.00" fill="#000000"> &#160;&#160;&#160;sub(a: uint256, b: uint256): uint256</text>
<text text-anchor="start" x="8" y="-922.5" font-family="Times,serif" font-size="14.00" fill="#000000"> &#160;&#160;&#160;sub(a: uint256, b: uint256, errorMessage: string): uint256</text>
<text text-anchor="start" x="8" y="-905.7" font-family="Times,serif" font-size="14.00" fill="#000000"> &#160;&#160;&#160;mul(a: uint256, b: uint256): uint256</text>
<text text-anchor="start" x="8" y="-888.9" font-family="Times,serif" font-size="14.00" fill="#000000"> &#160;&#160;&#160;div(a: uint256, b: uint256): uint256</text>
<text text-anchor="start" x="8" y="-872.1" font-family="Times,serif" font-size="14.00" fill="#000000"> &#160;&#160;&#160;div(a: uint256, b: uint256, errorMessage: string): uint256</text>
<text text-anchor="start" x="8" y="-855.3" font-family="Times,serif" font-size="14.00" fill="#000000"> &#160;&#160;&#160;mod(a: uint256, b: uint256): uint256</text>
<text text-anchor="start" x="8" y="-838.5" font-family="Times,serif" font-size="14.00" fill="#000000"> &#160;&#160;&#160;mod(a: uint256, b: uint256, errorMessage: string): uint256</text>
</g>
<!-- 3 -->
<g id="node4" class="node">
<title>3</title>
<polygon fill="#f2f2f2" stroke="#000000" points="375.4792,-830.3 375.4792,-1055.9 971.9136,-1055.9 971.9136,-830.3 375.4792,-830.3"/>
<text text-anchor="middle" x="673.6964" y="-1039.3" font-family="Times,serif" font-size="14.00" fill="#000000">&lt;&lt;Library&gt;&gt;</text>
<text text-anchor="middle" x="673.6964" y="-1022.5" font-family="Times,serif" font-size="14.00" fill="#000000">Address</text>
<polyline fill="none" stroke="#000000" points="375.4792,-1014.3 971.9136,-1014.3 "/>
<text text-anchor="middle" x="673.6964" y="-997.7" font-family="Times,serif" font-size="14.00" fill="#000000"> </text>
<polyline fill="none" stroke="#000000" points="375.4792,-989.5 971.9136,-989.5 "/>
<text text-anchor="start" x="383.4792" y="-972.9" font-family="Times,serif" font-size="14.00" fill="#000000">Private:</text>
<text text-anchor="start" x="383.4792" y="-956.1" font-family="Times,serif" font-size="14.00" fill="#000000"> &#160;&#160;&#160;_functionCallWithValue(target: address, data: bytes, weiValue: uint256, errorMessage: string): bytes</text>
<text text-anchor="start" x="383.4792" y="-939.3" font-family="Times,serif" font-size="14.00" fill="#000000">Internal:</text>
<text text-anchor="start" x="383.4792" y="-922.5" font-family="Times,serif" font-size="14.00" fill="#000000"> &#160;&#160;&#160;isContract(account: address): bool</text>
<text text-anchor="start" x="383.4792" y="-905.7" font-family="Times,serif" font-size="14.00" fill="#000000"> &#160;&#160;&#160;sendValue(recipient: address, amount: uint256)</text>
<text text-anchor="start" x="383.4792" y="-888.9" font-family="Times,serif" font-size="14.00" fill="#000000"> &#160;&#160;&#160;functionCall(target: address, data: bytes): bytes</text>
<text text-anchor="start" x="383.4792" y="-872.1" font-family="Times,serif" font-size="14.00" fill="#000000"> &#160;&#160;&#160;functionCall(target: address, data: bytes, errorMessage: string): bytes</text>
<text text-anchor="start" x="383.4792" y="-855.3" font-family="Times,serif" font-size="14.00" fill="#000000"> &#160;&#160;&#160;functionCallWithValue(target: address, data: bytes, value: uint256): bytes</text>
<text text-anchor="start" x="383.4792" y="-838.5" font-family="Times,serif" font-size="14.00" fill="#000000"> &#160;&#160;&#160;functionCallWithValue(target: address, data: bytes, value: uint256, errorMessage: string): bytes</text>
</g>
<!-- 4 -->
<g id="node5" class="node">
<title>4</title>
<polygon fill="#f2f2f2" stroke="#000000" points="635.1465,-290.5 635.1465,-784.9 1070.2463,-784.9 1070.2463,-290.5 635.1465,-290.5"/>
<text text-anchor="middle" x="852.6964" y="-768.3" font-family="Times,serif" font-size="14.00" fill="#000000">ERC20</text>
<polyline fill="none" stroke="#000000" points="635.1465,-760.1 1070.2463,-760.1 "/>
<text text-anchor="start" x="643.1465" y="-743.5" font-family="Times,serif" font-size="14.00" fill="#000000">Private:</text>
<text text-anchor="start" x="643.1465" y="-726.7" font-family="Times,serif" font-size="14.00" fill="#000000"> &#160;&#160;_balances: mapping(address=&gt;uint256)</text>
<text text-anchor="start" x="643.1465" y="-709.9" font-family="Times,serif" font-size="14.00" fill="#000000"> &#160;&#160;_allowances: mapping(address=&gt;mapping(address=&gt;uint256))</text>
<text text-anchor="start" x="643.1465" y="-693.1" font-family="Times,serif" font-size="14.00" fill="#000000"> &#160;&#160;_totalSupply: uint256</text>
<text text-anchor="start" x="643.1465" y="-676.3" font-family="Times,serif" font-size="14.00" fill="#000000"> &#160;&#160;_name: string</text>
<text text-anchor="start" x="643.1465" y="-659.5" font-family="Times,serif" font-size="14.00" fill="#000000"> &#160;&#160;_symbol: string</text>
<text text-anchor="start" x="643.1465" y="-642.7" font-family="Times,serif" font-size="14.00" fill="#000000"> &#160;&#160;_decimals: uint8</text>
<polyline fill="none" stroke="#000000" points="635.1465,-634.5 1070.2463,-634.5 "/>
<text text-anchor="start" x="643.1465" y="-617.9" font-family="Times,serif" font-size="14.00" fill="#000000">Internal:</text>
<text text-anchor="start" x="643.1465" y="-601.1" font-family="Times,serif" font-size="14.00" fill="#000000"> &#160;&#160;&#160;_transfer(sender: address, recipient: address, amount: uint256)</text>
<text text-anchor="start" x="643.1465" y="-584.3" font-family="Times,serif" font-size="14.00" fill="#000000"> &#160;&#160;&#160;_mint(account: address, amount: uint256)</text>
<text text-anchor="start" x="643.1465" y="-567.5" font-family="Times,serif" font-size="14.00" fill="#000000"> &#160;&#160;&#160;_burn(account: address, amount: uint256)</text>
<text text-anchor="start" x="643.1465" y="-550.7" font-family="Times,serif" font-size="14.00" fill="#000000"> &#160;&#160;&#160;_approve(owner: address, spender: address, amount: uint256)</text>
<text text-anchor="start" x="643.1465" y="-533.9" font-family="Times,serif" font-size="14.00" fill="#000000"> &#160;&#160;&#160;_setupDecimals(decimals_: uint8)</text>
<text text-anchor="start" x="643.1465" y="-517.1" font-family="Times,serif" font-size="14.00" fill="#000000"> &#160;&#160;&#160;_beforeTokenTransfer(from: address, to: address, amount: uint256)</text>
<text text-anchor="start" x="643.1465" y="-500.3" font-family="Times,serif" font-size="14.00" fill="#000000">Public:</text>
<text text-anchor="start" x="643.1465" y="-483.5" font-family="Times,serif" font-size="14.00" fill="#000000"> &#160;&#160;&#160;transfer(recipient: address, amount: uint256): bool</text>
<text text-anchor="start" x="643.1465" y="-466.7" font-family="Times,serif" font-size="14.00" fill="#000000"> &#160;&#160;&#160;constructor(name: string, symbol: string)</text>
<text text-anchor="start" x="643.1465" y="-449.9" font-family="Times,serif" font-size="14.00" fill="#000000"> &#160;&#160;&#160;symbol(): string</text>
<text text-anchor="start" x="643.1465" y="-433.1" font-family="Times,serif" font-size="14.00" fill="#000000"> &#160;&#160;&#160;decimals(): uint8</text>
<text text-anchor="start" x="643.1465" y="-416.3" font-family="Times,serif" font-size="14.00" fill="#000000"> &#160;&#160;&#160;totalSupply(): uint256</text>
<text text-anchor="start" x="643.1465" y="-399.5" font-family="Times,serif" font-size="14.00" fill="#000000"> &#160;&#160;&#160;balanceOf(account: address): uint256</text>
<text text-anchor="start" x="643.1465" y="-382.7" font-family="Times,serif" font-size="14.00" fill="#000000"> &#160;&#160;&#160;name(): string</text>
<text text-anchor="start" x="643.1465" y="-365.9" font-family="Times,serif" font-size="14.00" fill="#000000"> &#160;&#160;&#160;allowance(owner: address, spender: address): uint256</text>
<text text-anchor="start" x="643.1465" y="-349.1" font-family="Times,serif" font-size="14.00" fill="#000000"> &#160;&#160;&#160;approve(spender: address, amount: uint256): bool</text>
<text text-anchor="start" x="643.1465" y="-332.3" font-family="Times,serif" font-size="14.00" fill="#000000"> &#160;&#160;&#160;transferFrom(sender: address, recipient: address, amount: uint256): bool</text>
<text text-anchor="start" x="643.1465" y="-315.5" font-family="Times,serif" font-size="14.00" fill="#000000"> &#160;&#160;&#160;increaseAllowance(spender: address, addedValue: uint256): bool</text>
<text text-anchor="start" x="643.1465" y="-298.7" font-family="Times,serif" font-size="14.00" fill="#000000"> &#160;&#160;&#160;decreaseAllowance(spender: address, subtractedValue: uint256): bool</text>
</g>
<!-- 4&#45;&gt;0 -->
<g id="edge1" class="edge">
<title>4&#45;&gt;0</title>
<path fill="none" stroke="#000000" d="M1002.7057,-784.9105C1017.6956,-809.6134 1032.1225,-833.3884 1045.0352,-854.6681"/>
<polygon fill="none" stroke="#000000" points="1036.2431,-860.4192 1060.7828,-880.6196 1054.1963,-849.5251 1036.2431,-860.4192"/>
</g>
<!-- 4&#45;&gt;1 -->
<g id="edge2" class="edge">
<title>4&#45;&gt;1</title>
<path fill="none" stroke="#000000" stroke-dasharray="5,2" d="M1070.3698,-753.187C1085.8891,-764.7393 1101.7263,-775.6038 1117.6964,-785.4 1149.1869,-804.7165 1165.9985,-804.0895 1196.9427,-814.2504"/>
<polygon fill="none" stroke="#000000" points="1193.5741,-824.2064 1225.3397,-825.2991 1201.1887,-804.6356 1193.5741,-824.2064"/>
</g>
<!-- 4&#45;&gt;2 -->
<g id="edge3" class="edge">
<title>4&#45;&gt;2</title>
<path fill="none" stroke="#000000" stroke-dasharray="5,2" d="M634.8964,-661.9756C550.6057,-710.8175 453.658,-767.9107 366.6964,-821.4 364.7792,-822.5792 362.8526,-823.7674 360.918,-824.9634"/>
<polygon fill="#000000" stroke="#000000" points="359.0408,-822.0091 352.3883,-830.2551 362.731,-827.9574 359.0408,-822.0091"/>
</g>
<!-- 4&#45;&gt;3 -->
<g id="edge4" class="edge">
<title>4&#45;&gt;3</title>
<path fill="none" stroke="#000000" stroke-dasharray="5,2" d="M743.5433,-784.9105C738.1366,-797.1555 732.8306,-809.1726 727.7096,-820.7708"/>
<polygon fill="#000000" stroke="#000000" points="724.4813,-819.4171 723.6438,-829.9788 730.8849,-822.2446 724.4813,-819.4171"/>
</g>
<!-- 5 -->
<g id="node6" class="node">
<title>5</title>
<polygon fill="#f2f2f2" stroke="#000000" points="872.0028,-128.7 872.0028,-253.5 1159.39,-253.5 1159.39,-128.7 872.0028,-128.7"/>
<text text-anchor="middle" x="1015.6964" y="-236.9" font-family="Times,serif" font-size="14.00" fill="#000000">&lt;&lt;Abstract&gt;&gt;</text>
<text text-anchor="middle" x="1015.6964" y="-220.1" font-family="Times,serif" font-size="14.00" fill="#000000">ERC20Burnable</text>
<polyline fill="none" stroke="#000000" points="872.0028,-211.9 1159.39,-211.9 "/>
<text text-anchor="middle" x="1015.6964" y="-195.3" font-family="Times,serif" font-size="14.00" fill="#000000"> </text>
<polyline fill="none" stroke="#000000" points="872.0028,-187.1 1159.39,-187.1 "/>
<text text-anchor="start" x="880.0028" y="-170.5" font-family="Times,serif" font-size="14.00" fill="#000000">Public:</text>
<text text-anchor="start" x="880.0028" y="-153.7" font-family="Times,serif" font-size="14.00" fill="#000000"> &#160;&#160;&#160;burn(amount: uint256)</text>
<text text-anchor="start" x="880.0028" y="-136.9" font-family="Times,serif" font-size="14.00" fill="#000000"> &#160;&#160;&#160;burnFrom(account: address, amount: uint256)</text>
</g>
<!-- 5&#45;&gt;0 -->
<g id="edge5" class="edge">
<title>5&#45;&gt;0</title>
<path fill="none" stroke="#000000" d="M1063.2904,-253.7292C1069.9549,-265.2663 1075.8373,-277.5998 1079.6964,-290 1111.3561,-391.7289 1106.7834,-695.818 1102.105,-850.5153"/>
<polygon fill="none" stroke="#000000" points="1091.6044,-850.3667 1101.1332,-880.6891 1112.5935,-851.0427 1091.6044,-850.3667"/>
</g>
<!-- 5&#45;&gt;2 -->
<g id="edge7" class="edge">
<title>5&#45;&gt;2</title>
<path fill="none" stroke="#000000" stroke-dasharray="5,2" d="M871.9771,-216.5259C778.064,-235.2003 665.6812,-262.085 625.6964,-290 432.3078,-425.0122 297.2888,-672.6063 229.3119,-821.0998"/>
<polygon fill="#000000" stroke="#000000" points="226.0841,-819.7428 225.1304,-830.2947 232.4562,-822.6407 226.0841,-819.7428"/>
</g>
<!-- 5&#45;&gt;4 -->
<g id="edge6" class="edge">
<title>5&#45;&gt;4</title>
<path fill="none" stroke="#000000" d="M986.1783,-253.8666C984.7771,-256.8462 983.3407,-259.9005 981.8725,-263.0226"/>
<polygon fill="none" stroke="#000000" points="972.3008,-258.7029 969.0353,-290.3192 991.3042,-267.64 972.3008,-258.7029"/>
</g>
<!-- 6 -->
<g id="node7" class="node">
<title>6</title>
<polygon fill="#f2f2f2" stroke="#000000" points="1126.2594,-441.7 1126.2594,-633.7 1611.1334,-633.7 1611.1334,-441.7 1126.2594,-441.7"/>
<text text-anchor="middle" x="1368.6964" y="-617.1" font-family="Times,serif" font-size="14.00" fill="#000000">Ownable</text>
<polyline fill="none" stroke="#000000" points="1126.2594,-608.9 1611.1334,-608.9 "/>
<text text-anchor="start" x="1134.2594" y="-592.3" font-family="Times,serif" font-size="14.00" fill="#000000">Private:</text>
<text text-anchor="start" x="1134.2594" y="-575.5" font-family="Times,serif" font-size="14.00" fill="#000000"> &#160;&#160;_owner: address</text>
<polyline fill="none" stroke="#000000" points="1126.2594,-567.3 1611.1334,-567.3 "/>
<text text-anchor="start" x="1134.2594" y="-550.7" font-family="Times,serif" font-size="14.00" fill="#000000">Public:</text>
<text text-anchor="start" x="1134.2594" y="-533.9" font-family="Times,serif" font-size="14.00" fill="#000000"> &#160;&#160;&#160;&lt;&lt;event&gt;&gt; OwnershipTransferred(previousOwner: address, newOwner: address)</text>
<text text-anchor="start" x="1134.2594" y="-517.1" font-family="Times,serif" font-size="14.00" fill="#000000"> &#160;&#160;&#160;&lt;&lt;modifier&gt;&gt; onlyOwner()</text>
<text text-anchor="start" x="1134.2594" y="-500.3" font-family="Times,serif" font-size="14.00" fill="#000000"> &#160;&#160;&#160;constructor()</text>
<text text-anchor="start" x="1134.2594" y="-483.5" font-family="Times,serif" font-size="14.00" fill="#000000"> &#160;&#160;&#160;owner(): address</text>
<text text-anchor="start" x="1134.2594" y="-466.7" font-family="Times,serif" font-size="14.00" fill="#000000"> &#160;&#160;&#160;renounceOwnership()</text>
<text text-anchor="start" x="1134.2594" y="-449.9" font-family="Times,serif" font-size="14.00" fill="#000000"> &#160;&#160;&#160;transferOwnership(newOwner: address)</text>
</g>
<!-- 6&#45;&gt;0 -->
<g id="edge8" class="edge">
<title>6&#45;&gt;0</title>
<path fill="none" stroke="#000000" d="M1304.7102,-633.7741C1259.9296,-701.0113 1200.5759,-790.1299 1157.0823,-855.4347"/>
<polygon fill="none" stroke="#000000" points="1148.2703,-849.7236 1140.3798,-880.5131 1165.7487,-861.3644 1148.2703,-849.7236"/>
</g>
<!-- 7 -->
<g id="node8" class="node">
<title>7</title>
<polygon fill="#f2f2f2" stroke="#000000" points="1177.1851,-145.5 1177.1851,-236.7 1560.2077,-236.7 1560.2077,-145.5 1177.1851,-145.5"/>
<text text-anchor="middle" x="1368.6964" y="-220.1" font-family="Times,serif" font-size="14.00" fill="#000000">TokenRecover</text>
<polyline fill="none" stroke="#000000" points="1177.1851,-211.9 1560.2077,-211.9 "/>
<text text-anchor="middle" x="1368.6964" y="-195.3" font-family="Times,serif" font-size="14.00" fill="#000000"> </text>
<polyline fill="none" stroke="#000000" points="1177.1851,-187.1 1560.2077,-187.1 "/>
<text text-anchor="start" x="1185.1851" y="-170.5" font-family="Times,serif" font-size="14.00" fill="#000000">Public:</text>
<text text-anchor="start" x="1185.1851" y="-153.7" font-family="Times,serif" font-size="14.00" fill="#000000"> &#160;&#160;&#160;recoverERC20(tokenAddress: address, tokenAmount: uint256)</text>
</g>
<!-- 7&#45;&gt;1 -->
<g id="edge10" class="edge">
<title>7&#45;&gt;1</title>
<path fill="none" stroke="#000000" stroke-dasharray="5,2" d="M1525.1148,-236.805C1568.3841,-252.7657 1607.0115,-271.3677 1619.6964,-290 1681.6505,-381.0014 1664.4531,-684.8197 1619.6964,-785.4 1615.4123,-795.0275 1610.2179,-804.3145 1604.3398,-813.232"/>
<polygon fill="#000000" stroke="#000000" points="1601.3146,-811.4529 1598.5019,-821.6676 1607.0706,-815.4364 1601.3146,-811.4529"/>
</g>
<!-- 7&#45;&gt;6 -->
<g id="edge9" class="edge">
<title>7&#45;&gt;6</title>
<path fill="none" stroke="#000000" d="M1368.6964,-236.7683C1368.6964,-281.1139 1368.6964,-350.4793 1368.6964,-411.4419"/>
<polygon fill="none" stroke="#000000" points="1358.1965,-411.4601 1368.6964,-441.4601 1379.1965,-411.4601 1358.1965,-411.4601"/>
</g>
<!-- 8 -->
<g id="node9" class="node">
<title>8</title>
<polygon fill="#f2f2f2" stroke="#000000" points="1317.5477,-.5 1317.5477,-91.7 1419.8451,-91.7 1419.8451,-.5 1317.5477,-.5"/>
<text text-anchor="middle" x="1368.6964" y="-75.1" font-family="Times,serif" font-size="14.00" fill="#000000">OhlayToken</text>
<polyline fill="none" stroke="#000000" points="1317.5477,-66.9 1419.8451,-66.9 "/>
<text text-anchor="middle" x="1368.6964" y="-50.3" font-family="Times,serif" font-size="14.00" fill="#000000"> </text>
<polyline fill="none" stroke="#000000" points="1317.5477,-42.1 1419.8451,-42.1 "/>
<text text-anchor="start" x="1325.5477" y="-25.5" font-family="Times,serif" font-size="14.00" fill="#000000">Public:</text>
<text text-anchor="start" x="1325.5477" y="-8.7" font-family="Times,serif" font-size="14.00" fill="#000000"> &#160;&#160;&#160;constructor()</text>
</g>
<!-- 8&#45;&gt;5 -->
<g id="edge11" class="edge">
<title>8&#45;&gt;5</title>
<path fill="none" stroke="#000000" d="M1317.4491,-66.9569C1283.2436,-80.8934 1236.5771,-99.9355 1187.5359,-120.0567"/>
<polygon fill="none" stroke="#000000" points="1183.4629,-110.3784 1159.7015,-131.4888 1191.4413,-129.8038 1183.4629,-110.3784"/>
</g>
<!-- 8&#45;&gt;7 -->
<g id="edge12" class="edge">
<title>8&#45;&gt;7</title>
<path fill="none" stroke="#000000" d="M1368.6964,-91.9789C1368.6964,-99.2517 1368.6964,-106.9396 1368.6964,-114.6872"/>
<polygon fill="none" stroke="#000000" points="1358.1965,-115.0218 1368.6964,-145.0219 1379.1965,-115.0219 1358.1965,-115.0218"/>
</g>
</g>
</svg>
